<svg width="254" height="283" viewBox="0 0 254 283" fill="none" xmlns="http://www.w3.org/2000/svg">
<path fill-rule="evenodd" clip-rule="evenodd" d="M122 5C122 2.23858 119.761 0 117 0H5C2.23858 0 0 2.23858 0 5V16C0 18.7614 2.23858 21 5 21H44C46.7614 21 49 23.2386 49 26V164C49 166.761 51.2386 169 54 169H62C64.7614 169 67 166.761 67 164V26C67 23.2386 69.2386 21 72 21H118.964C119.289 21 119.614 21.0315 119.933 21.0961C133.823 23.9166 145.332 29.7333 154.46 38.5464C167.883 51.3916 174.595 68.2293 174.595 89.0594C174.595 105.608 169.677 120.478 159.841 133.67C152.291 143.796 142.593 151.707 130.748 157.401C125.047 160.141 122.334 167.102 125.652 172.487C133.499 185.218 142.06 197.449 151.335 209.179C168.693 230.588 183.853 245.285 196.814 253.27C208.903 260.545 223.514 265.05 240.646 266.786C243.191 267.044 245.613 269.259 245.591 271.816C245.569 274.269 243.297 275.268 240.845 275.205C233.955 275.028 226.742 274.891 219.206 274.794C210.296 274.678 200.228 274.563 189.003 274.447C180.498 274.358 173.52 274.304 168.067 274.283C165.157 274.272 162.391 273.008 160.504 270.792C134.974 240.809 113.625 211.067 96.4589 181.566C96.0151 180.804 96 179.882 96 179V179V157.154C96 154.763 97.7022 152.736 100.003 152.087C110.028 149.258 117.881 143.524 123.562 134.886C132.125 121.925 136.407 106.649 136.407 89.0594C136.407 71.701 131.72 57.5828 122.347 46.7049C115.247 38.3634 105.699 33.2201 93.7 31.2751C93.4191 31.2296 93.1423 31.1549 92.8644 31.0936C92.586 31.0323 92.2968 31 92 31H79C76.7909 31 75 32.7909 75 35V179C75 181.209 76.7909 183 79 183H87.6494C88.5181 183 89.2804 183.541 89.7176 184.292V184.292C106.873 213.747 129.439 244.962 157.417 277.937C159.282 280.136 162.019 281.408 164.903 281.438C200.821 281.822 227.212 282.205 244.075 282.589C248.567 282.691 252.716 279.815 253.277 275.357C253.613 272.681 253.683 270.013 253.487 267.352C253.176 263.129 249.528 260.185 245.371 259.377C233.618 257.092 222.755 251.932 212.784 243.896C200.98 234.291 188.945 221.33 176.678 205.013C168.849 194.836 161.74 184.854 155.349 175.069C152.046 170.012 154.185 163.295 159.378 160.211C170.573 153.563 179.811 144.89 187.093 134.191C196.467 120.42 201.154 105.376 201.154 89.0594C201.154 66.0305 193.169 47.4571 177.199 33.3389C164.283 21.8266 147.43 14.9698 126.641 12.7686C124.032 12.4923 122 10.3257 122 7.70177V5ZM102.082 41.1409C99.0984 39.8124 96 42.2092 96 45.4749V139.117C96 142.375 99.0851 144.777 102.077 143.49C109.452 140.318 115.283 135.02 119.569 127.595C126.05 116.37 129.29 103.525 129.29 89.0594C129.29 74.1311 124.777 61.5752 115.75 51.3916C111.771 46.8439 107.215 43.427 102.082 41.1409ZM27 35C27 32.2386 29.2386 30 32 30H37C39.7614 30 42 32.2386 42 35V139C42 141.761 39.7614 144 37 144H32C29.2386 144 27 141.761 27 139V35ZM20 33C20 30.2386 17.7614 28 15 28H10C7.23858 28 5 30.2386 5 33V109C5 111.761 7.23858 114 10 114H15C17.7614 114 20 111.761 20 109V33Z" fill="#22A463"/>
</svg>
